The Invader (2011) DVDRip H264-AC3-AVI-NLU002
.
[IMG]http://i.imgur.com/zvygb.jpg[/IMG]
.
95 min  -  België - Drama / Thriller  -   24 May 2012 (Netherlands)
. 
http://www.imdb.com/title/tt1772947/
. 
http://www.moviemeter.nl/film/79094
.
PLOT
.
Belgium
Drama / Thriller
95 minutes

directed by Nicolas Provost
with Isaka Sawadogo, Stefania Rocca and Serge Riaboukine

The African Amadou lands in good spirits in Brussels on his quest for a better life.
During the confrontation with the harsh society, he is a victim of people who exploit him
and those experiences bring about a change in Amadou.
Amadou changes in what the hostile society made him: a dangerous individual.
.
Source: Retail DVD9
Format: H264 AC3 AVI
Audio: French DD5.1
Subtitles: Dutch, French, English
.
Video
Format                                   : AVC
Format/Info                              : Advanced Video Codec
Format profile                           : High@L3.1
Format settings, CABAC                   : Yes
Format settings, ReFrames                : 10 frames
Codec ID                                 : H264
Duration                                 : 1h 29mn
Bit rate                                 : 1 721 Kbps
Width                                    : 712 pixels
Height                                   : 296 pixels
Display aspect ratio                     : 2.40:1
Frame rate                               : 25.000 fps
Color space                              : YUV
Chroma subsampling                       : 4:2:0
Bit depth                                : 8 bits
Scan type                                : Progressive
Bits/(Pixel*Frame)                       : 0.327
Stream size                              : 1.08 GiB (79%)
Writing library                          : x264 core 93 r1538bm bd72d46
Encoding settings                        : cabac=1 / ref=10 / deblock=1:-2:-1 / analyse=0x3:0x133 / me=umh / subme=6 / psy=1 / psy_rd=1.00:0.00 / mixed_ref=1 / me_range=16 / chroma_me=1 / trellis=2 / 8x8dct=1 / cqm=0 / deadzone=21,11 / fast_pskip=0 / chroma_qp_offset=-2 / threads=8 / sliced_threads=0 / nr=0 / decimate=1 / interlaced=0 / constrained_intra=0 / bframes=16 / b_pyramid=2 / b_adapt=1 / b_bias=0 / direct=1 / wpredb=1 / wpredp=2 / keyint=250 / keyint_min=25 / scenecut=40 / intra_refresh=0 / rc_lookahead=40 / rc=2pass / mbtree=1 / bitrate=1721 / ratetol=1.0 / qcomp=0.60 / qpmin=10 / qpmax=51 / qpstep=4 / cplxblur=20.0 / qblur=0.5 / ip_ratio=1.40 / aq=1:1.00

Audio
Format                                   : AC-3
Format/Info                              : Audio Coding 3
Mode extension                           : CM (complete main)
Format settings, Endianness              : Big
Codec ID                                 : 2000
Duration                                 : 1h 29mn
Bit rate mode                            : Constant
Bit rate                                 : 448 Kbps
Channel(s)                               : 6 channels
Channel positions                        : Front: L C R, Side: L R, LFE
Sampling rate                            : 48.0 KHz
Bit depth                                : 16 bits
Compression mode                         : Lossy
Stream size                              : 287 MiB (21%)
Alignment                                : Split accross interleaves
Interleave, duration                     : 40 ms (1.00 video frame)
Interleave, preload duration             : 500 ms
.
Enjoy it

